<svg xmlns="http://www.w3.org/2000/svg" xmlns:xlink="http://www.w3.org/1999/xlink" contentStyleType="text/css" data-diagram-type="SEQUENCE" height="1332px" preserveAspectRatio="none" style="width:1245px;height:1332px;background:#FFFFFF;" version="1.1" viewBox="0 0 1245 1332" width="1245px" zoomAndPan="magnify"><title>Iscrizione gara</title><defs/><g><text fill="#000000" font-family="sans-serif" font-size="14" font-weight="bold" lengthAdjust="spacing" textLength="116.2656" x="565.502" y="27.9951">Iscrizione gara</text><rect fill="none" height="943.5313" style="stroke:#000000;stroke-width:1.5;" width="1228.2695" x="10" y="336.6563"/><rect fill="none" height="162.7969" style="stroke:#000000;stroke-width:1.5;" width="923.4805" x="30" y="477.3203"/><rect fill="none" height="414.6641" style="stroke:#000000;stroke-width:1.5;" width="1208.2695" x="20" y="712.3828"/><rect fill="none" height="46.2656" style="stroke:#000000;stroke-width:1.5;" width="329.9688" x="464.3721" y="911.3125"/><rect fill="none" height="75.3984" style="stroke:#000000;stroke-width:1.5;" width="588.3701" x="30" y="1044.6484"/><g><title>Concorrente</title><rect fill="#000000" fill-opacity="0.00000" height="1223.5938" width="8" x="86.2886" y="73.5938"/><line style="stroke:#181818;stroke-width:0.5;stroke-dasharray:5,5;" x1="90" x2="90" y1="73.5938" y2="1297.1875"/></g><g><title>PaginaIscrizioneGara</title><rect fill="#000000" fill-opacity="0.00000" height="1223.5938" width="8" x="250.8193" y="73.5938"/><line style="stroke:#181818;stroke-width:0.5;stroke-dasharray:5,5;" x1="254.2852" x2="254.2852" y1="73.5938" y2="1297.1875"/></g><g><title>MainConcorrente</title><rect fill="#000000" fill-opacity="0.00000" height="1223.5938" width="8" x="537.3711" y="73.5938"/><line style="stroke:#181818;stroke-width:0.5;stroke-dasharray:5,5;" x1="540.3721" x2="540.3721" y1="73.5938" y2="1297.1875"/></g><g><title>Gara</title><rect fill="#000000" fill-opacity="0.00000" height="1223.5938" width="8" x="744.1899" y="73.5938"/><line style="stroke:#181818;stroke-width:0.5;stroke-dasharray:5,5;" x1="747.3086" x2="747.3086" y1="73.5938" y2="1297.1875"/></g><g><title>Contratto</title><rect fill="#000000" fill-opacity="0.00000" height="1223.5938" width="8" x="818.3623" y="73.5938"/><line style="stroke:#181818;stroke-width:0.5;stroke-dasharray:5,5;" x1="822.0713" x2="822.0713" y1="73.5938" y2="1297.1875"/></g><g><title>Sponsor</title><rect fill="#000000" fill-opacity="0.00000" height="1223.5938" width="8" x="904.0669" y="73.5938"/><line style="stroke:#181818;stroke-width:0.5;stroke-dasharray:5,5;" x1="907.6533" x2="907.6533" y1="73.5938" y2="1297.1875"/></g><g><title>servizioMeteo</title><rect fill="#000000" fill-opacity="0.00000" height="1223.5938" width="8" x="1004.9814" y="73.5938"/><line style="stroke:#181818;stroke-width:0.5;stroke-dasharray:5,5;" x1="1008.4805" x2="1008.4805" y1="73.5938" y2="1297.1875"/></g><g><title>sistemaPagamenti</title><rect fill="#000000" fill-opacity="0.00000" height="1223.5938" width="8" x="1142.376" y="73.5938"/><line style="stroke:#181818;stroke-width:0.5;stroke-dasharray:5,5;" x1="1145.4824" x2="1145.4824" y1="73.5938" y2="1297.1875"/></g><g class="participant participant-head" data-participant="Concorrente"><rect fill="#E2E2F0" height="30.2969" rx="2.5" ry="2.5" style="stroke:#181818;stroke-width:0.5;" width="100.5771" x="40" y="42.2969"/><text fill="#000000" font-family="sans-serif" font-size="14" lengthAdjust="spacing" textLength="86.5771" x="47" y="62.292">Concorrente</text></g><g class="participant participant-tail" data-participant="Concorrente"><rect fill="#E2E2F0" height="30.2969" rx="2.5" ry="2.5" style="stroke:#181818;stroke-width:0.5;" width="100.5771" x="40" y="1296.1875"/><text fill="#000000" font-family="sans-serif" font-size="14" lengthAdjust="spacing" textLength="86.5771" x="47" y="1316.1826">Concorrente</text></g><g class="participant participant-head" data-participant="Pagina"><rect fill="#E2E2F0" height="30.2969" rx="2.5" ry="2.5" style="stroke:#181818;stroke-width:0.5;" width="161.0684" x="174.2852" y="42.2969"/><text fill="#000000" font-family="sans-serif" font-size="14" lengthAdjust="spacing" textLength="147.0684" x="181.2852" y="62.292">PaginaIscrizioneGara</text></g><g class="participant participant-tail" data-participant="Pagina"><rect fill="#E2E2F0" height="30.2969" rx="2.5" ry="2.5" style="stroke:#181818;stroke-width:0.5;" width="161.0684" x="174.2852" y="1296.1875"/><text fill="#000000" font-family="sans-serif" font-size="14" lengthAdjust="spacing" textLength="147.0684" x="181.2852" y="1316.1826">PaginaIscrizioneGara</text></g><g class="participant participant-head" data-participant="Main"><rect fill="#E2E2F0" height="30.2969" rx="2.5" ry="2.5" style="stroke:#181818;stroke-width:0.5;" width="133.998" x="474.3721" y="42.2969"/><text fill="#000000" font-family="sans-serif" font-size="14" lengthAdjust="spacing" textLength="119.998" x="481.3721" y="62.292">MainConcorrente</text></g><g class="participant participant-tail" data-participant="Main"><rect fill="#E2E2F0" height="30.2969" rx="2.5" ry="2.5" style="stroke:#181818;stroke-width:0.5;" width="133.998" x="474.3721" y="1296.1875"/><text fill="#000000" font-family="sans-serif" font-size="14" lengthAdjust="spacing" textLength="119.998" x="481.3721" y="1316.1826">MainConcorrente</text></g><g class="participant participant-head" data-participant="Gara"><rect fill="#E2E2F0" height="30.2969" rx="2.5" ry="2.5" style="stroke:#181818;stroke-width:0.5;" width="47.7627" x="724.3086" y="42.2969"/><text fill="#000000" font-family="sans-serif" font-size="14" lengthAdjust="spacing" textLength="33.7627" x="731.3086" y="62.292">Gara</text></g><g class="participant participant-tail" data-participant="Gara"><rect fill="#E2E2F0" height="30.2969" rx="2.5" ry="2.5" style="stroke:#181818;stroke-width:0.5;" width="47.7627" x="724.3086" y="1296.1875"/><text fill="#000000" font-family="sans-serif" font-size="14" lengthAdjust="spacing" textLength="33.7627" x="731.3086" y="1316.1826">Gara</text></g><g class="participant participant-head" data-participant="Contratto"><rect fill="#E2E2F0" height="30.2969" rx="2.5" ry="2.5" style="stroke:#181818;stroke-width:0.5;" width="80.582" x="782.0713" y="42.2969"/><text fill="#000000" font-family="sans-serif" font-size="14" lengthAdjust="spacing" textLength="66.582" x="789.0713" y="62.292">Contratto</text></g><g class="participant participant-tail" data-participant="Contratto"><rect fill="#E2E2F0" height="30.2969" rx="2.5" ry="2.5" style="stroke:#181818;stroke-width:0.5;" width="80.582" x="782.0713" y="1296.1875"/><text fill="#000000" font-family="sans-serif" font-size="14" lengthAdjust="spacing" textLength="66.582" x="789.0713" y="1316.1826">Contratto</text></g><g class="participant participant-head" data-participant="Sponsor"><rect fill="#E2E2F0" height="30.2969" rx="2.5" ry="2.5" style="stroke:#181818;stroke-width:0.5;" width="70.8271" x="872.6533" y="42.2969"/><text fill="#000000" font-family="sans-serif" font-size="14" lengthAdjust="spacing" textLength="56.8271" x="879.6533" y="62.292">Sponsor</text></g><g class="participant participant-tail" data-participant="Sponsor"><rect fill="#E2E2F0" height="30.2969" rx="2.5" ry="2.5" style="stroke:#181818;stroke-width:0.5;" width="70.8271" x="872.6533" y="1296.1875"/><text fill="#000000" font-family="sans-serif" font-size="14" lengthAdjust="spacing" textLength="56.8271" x="879.6533" y="1316.1826">Sponsor</text></g><g class="participant participant-head" data-participant="Meteo"><rect fill="#E2E2F0" height="30.2969" rx="2.5" ry="2.5" style="stroke:#181818;stroke-width:0.5;" width="111.002" x="953.4805" y="42.2969"/><text fill="#000000" font-family="sans-serif" font-size="14" lengthAdjust="spacing" textLength="97.002" x="960.4805" y="62.292">servizioMeteo</text></g><g class="participant participant-tail" data-participant="Meteo"><rect fill="#E2E2F0" height="30.2969" rx="2.5" ry="2.5" style="stroke:#181818;stroke-width:0.5;" width="111.002" x="953.4805" y="1296.1875"/><text fill="#000000" font-family="sans-serif" font-size="14" lengthAdjust="spacing" textLength="97.002" x="960.4805" y="1316.1826">servizioMeteo</text></g><g class="participant participant-head" data-participant="Pag"><rect fill="#E2E2F0" height="30.2969" rx="2.5" ry="2.5" style="stroke:#181818;stroke-width:0.5;" width="143.7871" x="1074.4824" y="42.2969"/><text fill="#000000" font-family="sans-serif" font-size="14" lengthAdjust="spacing" textLength="129.7871" x="1081.4824" y="62.292">sistemaPagamenti</text></g><g class="participant participant-tail" data-participant="Pag"><rect fill="#E2E2F0" height="30.2969" rx="2.5" ry="2.5" style="stroke:#181818;stroke-width:0.5;" width="143.7871" x="1074.4824" y="1296.1875"/><text fill="#000000" font-family="sans-serif" font-size="14" lengthAdjust="spacing" textLength="129.7871" x="1081.4824" y="1316.1826">sistemaPagamenti</text></g><g class="message" data-participant-1="Concorrente" data-participant-2="Pagina"><polygon fill="#181818" points="242.8193,100.7266,252.8193,104.7266,242.8193,108.7266,246.8193,104.7266" style="stroke:#181818;stroke-width:1;"/><line style="stroke:#181818;stroke-width:1;" x1="90.2886" x2="248.8193" y1="104.7266" y2="104.7266"/><text fill="#000000" font-family="sans-serif" font-size="13" lengthAdjust="spacing" textLength="140.5308" x="97.2886" y="99.6606">apriPaginaIscrizione()</text></g><g class="message" data-participant-1="Pagina" data-participant-2="Main"><polygon fill="#181818" points="529.3711,129.8594,539.3711,133.8594,529.3711,137.8594,533.3711,133.8594" style="stroke:#181818;stroke-width:1;"/><line style="stroke:#181818;stroke-width:1;" x1="254.8193" x2="535.3711" y1="133.8594" y2="133.8594"/><text fill="#000000" font-family="sans-serif" font-size="13" lengthAdjust="spacing" textLength="131.7393" x="261.8193" y="128.7935">richiediGareFuture()</text></g><g class="message" data-participant-1="Main" data-participant-2="Main"><line style="stroke:#181818;stroke-width:1;" x1="541.3711" x2="583.3711" y1="162.9922" y2="162.9922"/><line style="stroke:#181818;stroke-width:1;" x1="583.3711" x2="583.3711" y1="162.9922" y2="175.9922"/><line style="stroke:#181818;stroke-width:1;" x1="542.3711" x2="583.3711" y1="175.9922" y2="175.9922"/><polygon fill="#181818" points="552.3711,171.9922,542.3711,175.9922,552.3711,179.9922,548.3711,175.9922" style="stroke:#181818;stroke-width:1;"/><text fill="#000000" font-family="sans-serif" font-size="13" lengthAdjust="spacing" textLength="119.5264" x="548.3711" y="157.9263">cercaGareFuture()</text></g><g class="message" data-participant-1="Main" data-participant-2="Gara"><polygon fill="#181818" points="736.1899,201.125,746.1899,205.125,736.1899,209.125,740.1899,205.125" style="stroke:#181818;stroke-width:1;"/><line style="stroke:#181818;stroke-width:1;" x1="541.3711" x2="742.1899" y1="205.125" y2="205.125"/><text fill="#000000" font-family="sans-serif" font-size="13" lengthAdjust="spacing" textLength="62.8735" x="548.3711" y="200.0591">getGare()</text></g><g class="message" data-participant-1="Main" data-participant-2="Meteo"><polygon fill="#181818" points="996.9814,230.2578,1006.9814,234.2578,996.9814,238.2578,1000.9814,234.2578" style="stroke:#181818;stroke-width:1;"/><line style="stroke:#181818;stroke-width:1;" x1="541.3711" x2="1002.9814" y1="234.2578" y2="234.2578"/><text fill="#000000" font-family="sans-serif" font-size="13" lengthAdjust="spacing" textLength="86.0107" x="548.3711" y="229.1919">cercaMeteo()</text></g><g class="message" data-participant-1="Main" data-participant-2="Pagina"><polygon fill="#181818" points="265.8193,259.3906,255.8193,263.3906,265.8193,267.3906,261.8193,263.3906" style="stroke:#181818;stroke-width:1;"/><line style="stroke:#181818;stroke-width:1;" x1="259.8193" x2="540.3711" y1="263.3906" y2="263.3906"/><text fill="#000000" font-family="sans-serif" font-size="13" lengthAdjust="spacing" textLength="135.8018" x="271.8193" y="258.3247">mostraGareEMeteo()</text></g><g class="message" data-participant-1="Concorrente" data-participant-2="Pagina"><polygon fill="#181818" points="242.8193,288.5234,252.8193,292.5234,242.8193,296.5234,246.8193,292.5234" style="stroke:#181818;stroke-width:1;"/><line style="stroke:#181818;stroke-width:1;" x1="90.2886" x2="248.8193" y1="292.5234" y2="292.5234"/><text fill="#000000" font-family="sans-serif" font-size="13" lengthAdjust="spacing" textLength="102.4702" x="97.2886" y="287.4575">selezionaGara()</text></g><g class="message" data-participant-1="Pagina" data-participant-2="Main"><polygon fill="#181818" points="529.3711,317.6563,539.3711,321.6563,529.3711,325.6563,533.3711,321.6563" style="stroke:#181818;stroke-width:1;"/><line style="stroke:#181818;stroke-width:1;" x1="254.8193" x2="535.3711" y1="321.6563" y2="321.6563"/><text fill="#000000" font-family="sans-serif" font-size="13" lengthAdjust="spacing" textLength="119.2979" x="261.8193" y="316.5903">richiediIscrizione()</text></g><path d="M10,336.6563 L74.4429,336.6563 L74.4429,343.7891 L64.4429,353.7891 L10,353.7891 L10,336.6563" fill="#EEEEEE" style="stroke:#000000;stroke-width:1.5;"/><rect fill="none" height="943.5313" style="stroke:#000000;stroke-width:1.5;" width="1228.2695" x="10" y="336.6563"/><text fill="#000000" font-family="sans-serif" font-size="13" font-weight="bold" lengthAdjust="spacing" textLength="19.4429" x="25" y="349.7231">alt</text><text fill="#000000" font-family="sans-serif" font-size="11" font-weight="bold" lengthAdjust="spacing" textLength="193.6602" x="89.4429" y="348.8667">[data valida e posti disponibili]</text><g class="message" data-participant-1="Main" data-participant-2="Gara"><polygon fill="#181818" points="736.1899,370.9219,746.1899,374.9219,736.1899,378.9219,740.1899,374.9219" style="stroke:#181818;stroke-width:1;"/><line style="stroke:#181818;stroke-width:1;" x1="541.3711" x2="742.1899" y1="374.9219" y2="374.9219"/><text fill="#000000" font-family="sans-serif" font-size="13" lengthAdjust="spacing" textLength="89.1338" x="548.3711" y="369.856">verificaData()</text></g><g class="message" data-participant-1="Gara" data-participant-2="Main"><polygon fill="#181818" points="552.3711,400.0547,542.3711,404.0547,552.3711,408.0547,548.3711,404.0547" style="stroke:#181818;stroke-width:1;"/><line style="stroke:#181818;stroke-width:1;stroke-dasharray:2,2;" x1="546.3711" x2="747.1899" y1="404.0547" y2="404.0547"/><text fill="#000000" font-family="sans-serif" font-size="13" lengthAdjust="spacing" textLength="48.0391" x="558.3711" y="398.9888">dataOK</text></g><g class="message" data-participant-1="Main" data-participant-2="Gara"><polygon fill="#181818" points="736.1899,429.1875,746.1899,433.1875,736.1899,437.1875,740.1899,433.1875" style="stroke:#181818;stroke-width:1;"/><line style="stroke:#181818;stroke-width:1;" x1="541.3711" x2="742.1899" y1="433.1875" y2="433.1875"/><text fill="#000000" font-family="sans-serif" font-size="13" lengthAdjust="spacing" textLength="84.9697" x="548.3711" y="428.1216">verificaMax()</text></g><g class="message" data-participant-1="Gara" data-participant-2="Main"><polygon fill="#181818" points="552.3711,458.3203,542.3711,462.3203,552.3711,466.3203,548.3711,462.3203" style="stroke:#181818;stroke-width:1;"/><line style="stroke:#181818;stroke-width:1;stroke-dasharray:2,2;" x1="546.3711" x2="747.1899" y1="462.3203" y2="462.3203"/><text fill="#000000" font-family="sans-serif" font-size="13" lengthAdjust="spacing" textLength="109.3701" x="558.3711" y="457.2544">postiDisponibili()</text></g><path d="M30,477.3203 L99.4512,477.3203 L99.4512,484.4531 L89.4512,494.4531 L30,494.4531 L30,477.3203" fill="#EEEEEE" style="stroke:#000000;stroke-width:1.5;"/><rect fill="none" height="162.7969" style="stroke:#000000;stroke-width:1.5;" width="923.4805" x="30" y="477.3203"/><text fill="#000000" font-family="sans-serif" font-size="13" font-weight="bold" lengthAdjust="spacing" textLength="24.4512" x="45" y="490.3872">opt</text><text fill="#000000" font-family="sans-serif" font-size="11" font-weight="bold" lengthAdjust="spacing" textLength="172.1973" x="114.4512" y="489.5308">[esiste sponsor disponibile]</text><g class="message" data-participant-1="Main" data-participant-2="Contratto"><polygon fill="#181818" points="810.3623,511.5859,820.3623,515.5859,810.3623,519.5859,814.3623,515.5859" style="stroke:#181818;stroke-width:1;"/><line style="stroke:#181818;stroke-width:1;" x1="541.3711" x2="816.3623" y1="515.5859" y2="515.5859"/><text fill="#000000" font-family="sans-serif" font-size="13" lengthAdjust="spacing" textLength="122.9795" x="548.3711" y="510.52">getContrattiAttivi()</text></g><g class="message" data-participant-1="Contratto" data-participant-2="Main"><polygon fill="#181818" points="552.3711,540.7188,542.3711,544.7188,552.3711,548.7188,548.3711,544.7188" style="stroke:#181818;stroke-width:1;"/><line style="stroke:#181818;stroke-width:1;stroke-dasharray:2,2;" x1="546.3711" x2="821.3623" y1="544.7188" y2="544.7188"/><text fill="#000000" font-family="sans-serif" font-size="13" lengthAdjust="spacing" textLength="110.5762" x="558.3711" y="539.6528">elencoContratti()</text></g><g class="message" data-participant-1="Main" data-participant-2="Pagina"><polygon fill="#181818" points="265.8193,569.8516,255.8193,573.8516,265.8193,577.8516,261.8193,573.8516" style="stroke:#181818;stroke-width:1;"/><line style="stroke:#181818;stroke-width:1;" x1="259.8193" x2="540.3711" y1="573.8516" y2="573.8516"/><text fill="#000000" font-family="sans-serif" font-size="13" lengthAdjust="spacing" textLength="176.249" x="271.8193" y="568.7856">mostraSponsorDisponibili()</text></g><g class="message" data-participant-1="Concorrente" data-participant-2="Sponsor"><polygon fill="#181818" points="896.0669,598.9844,906.0669,602.9844,896.0669,606.9844,900.0669,602.9844" style="stroke:#181818;stroke-width:1;"/><line style="stroke:#181818;stroke-width:1;" x1="90.2886" x2="902.0669" y1="602.9844" y2="602.9844"/><text fill="#000000" font-family="sans-serif" font-size="13" lengthAdjust="spacing" textLength="123.8872" x="97.2886" y="597.9185">selezionaSponsor()</text></g><g class="message" data-participant-1="Sponsor" data-participant-2="Main"><polygon fill="#181818" points="552.3711,628.1172,542.3711,632.1172,552.3711,636.1172,548.3711,632.1172" style="stroke:#181818;stroke-width:1;"/><line style="stroke:#181818;stroke-width:1;" x1="546.3711" x2="907.0669" y1="632.1172" y2="632.1172"/><text fill="#000000" font-family="sans-serif" font-size="13" lengthAdjust="spacing" textLength="124.8013" x="558.3711" y="627.0513">confermaSponsor()</text></g><g class="message" data-participant-1="Main" data-participant-2="Gara"><polygon fill="#181818" points="736.1899,664.25,746.1899,668.25,736.1899,672.25,740.1899,668.25" style="stroke:#181818;stroke-width:1;"/><line style="stroke:#181818;stroke-width:1;" x1="541.3711" x2="742.1899" y1="668.25" y2="668.25"/><text fill="#000000" font-family="sans-serif" font-size="13" lengthAdjust="spacing" textLength="132.3169" x="548.3711" y="663.1841">getQuotaIscrizione()</text></g><g class="message" data-participant-1="Gara" data-participant-2="Main"><polygon fill="#181818" points="552.3711,693.3828,542.3711,697.3828,552.3711,701.3828,548.3711,697.3828" style="stroke:#181818;stroke-width:1;"/><line style="stroke:#181818;stroke-width:1;stroke-dasharray:2,2;" x1="546.3711" x2="747.1899" y1="697.3828" y2="697.3828"/><text fill="#000000" font-family="sans-serif" font-size="13" lengthAdjust="spacing" textLength="47.6519" x="558.3711" y="692.3169">quota()</text></g><path d="M20,712.3828 L84.4429,712.3828 L84.4429,719.5156 L74.4429,729.5156 L20,729.5156 L20,712.3828" fill="#EEEEEE" style="stroke:#000000;stroke-width:1.5;"/><rect fill="none" height="414.6641" style="stroke:#000000;stroke-width:1.5;" width="1208.2695" x="20" y="712.3828"/><text fill="#000000" font-family="sans-serif" font-size="13" font-weight="bold" lengthAdjust="spacing" textLength="19.4429" x="35" y="725.4497">alt</text><text fill="#000000" font-family="sans-serif" font-size="11" font-weight="bold" lengthAdjust="spacing" textLength="101.9219" x="99.4429" y="724.5933">[pagamento OK]</text><g class="message" data-participant-1="Main" data-participant-2="Pag"><polygon fill="#181818" points="1134.376,746.6484,1144.376,750.6484,1134.376,754.6484,1138.376,750.6484" style="stroke:#181818;stroke-width:1;"/><line style="stroke:#181818;stroke-width:1;" x1="541.3711" x2="1140.376" y1="750.6484" y2="750.6484"/><text fill="#000000" font-family="sans-serif" font-size="13" lengthAdjust="spacing" textLength="135.6685" x="548.3711" y="745.5825">effettuaPagamento()</text></g><g class="message" data-participant-1="Pag" data-participant-2="Main"><polygon fill="#181818" points="552.3711,775.7813,542.3711,779.7813,552.3711,783.7813,548.3711,779.7813" style="stroke:#181818;stroke-width:1;"/><line style="stroke:#181818;stroke-width:1;stroke-dasharray:2,2;" x1="546.3711" x2="1145.376" y1="779.7813" y2="779.7813"/><text fill="#000000" font-family="sans-serif" font-size="13" lengthAdjust="spacing" textLength="115.5527" x="558.3711" y="774.7153">esitoPagamento()</text></g><g class="message" data-participant-1="Main" data-participant-2="Gara"><polygon fill="#181818" points="736.1899,804.9141,746.1899,808.9141,736.1899,812.9141,740.1899,808.9141" style="stroke:#181818;stroke-width:1;"/><line style="stroke:#181818;stroke-width:1;" x1="541.3711" x2="742.1899" y1="808.9141" y2="808.9141"/><text fill="#000000" font-family="sans-serif" font-size="13" lengthAdjust="spacing" textLength="121.8687" x="548.3711" y="803.8481">registraIscrizione()</text></g><g class="message" data-participant-1="Main" data-participant-2="Gara"><polygon fill="#181818" points="736.1899,834.0469,746.1899,838.0469,736.1899,842.0469,740.1899,838.0469" style="stroke:#181818;stroke-width:1;"/><line style="stroke:#181818;stroke-width:1;" x1="541.3711" x2="742.1899" y1="838.0469" y2="838.0469"/><text fill="#000000" font-family="sans-serif" font-size="13" lengthAdjust="spacing" textLength="87.0645" x="548.3711" y="832.981">contaIscritti()</text></g><g class="message" data-participant-1="Main" data-participant-2="Gara"><polygon fill="#181818" points="736.1899,863.1797,746.1899,867.1797,736.1899,871.1797,740.1899,867.1797" style="stroke:#181818;stroke-width:1;"/><line style="stroke:#181818;stroke-width:1;" x1="541.3711" x2="742.1899" y1="867.1797" y2="867.1797"/><text fill="#000000" font-family="sans-serif" font-size="13" lengthAdjust="spacing" textLength="84.9697" x="548.3711" y="862.1138">verificaMax()</text></g><g class="message" data-participant-1="Gara" data-participant-2="Main"><polygon fill="#181818" points="552.3711,892.3125,542.3711,896.3125,552.3711,900.3125,548.3711,896.3125" style="stroke:#181818;stroke-width:1;"/><line style="stroke:#181818;stroke-width:1;stroke-dasharray:2,2;" x1="546.3711" x2="747.1899" y1="896.3125" y2="896.3125"/><text fill="#000000" font-family="sans-serif" font-size="13" lengthAdjust="spacing" textLength="148.2749" x="558.3711" y="891.2466">postiDisponibiliFinale()</text></g><path d="M464.3721,911.3125 L533.8232,911.3125 L533.8232,918.4453 L523.8232,928.4453 L464.3721,928.4453 L464.3721,911.3125" fill="#EEEEEE" style="stroke:#000000;stroke-width:1.5;"/><rect fill="none" height="46.2656" style="stroke:#000000;stroke-width:1.5;" width="329.9688" x="464.3721" y="911.3125"/><text fill="#000000" font-family="sans-serif" font-size="13" font-weight="bold" lengthAdjust="spacing" textLength="24.4512" x="479.3721" y="924.3794">opt</text><text fill="#000000" font-family="sans-serif" font-size="11" font-weight="bold" lengthAdjust="spacing" textLength="240.5176" x="548.8232" y="923.5229">[raggiunto numero massimo di iscritti]</text><g class="message" data-participant-1="Main" data-participant-2="Gara"><polygon fill="#181818" points="736.1899,945.5781,746.1899,949.5781,736.1899,953.5781,740.1899,949.5781" style="stroke:#181818;stroke-width:1;"/><line style="stroke:#181818;stroke-width:1;" x1="541.3711" x2="742.1899" y1="949.5781" y2="949.5781"/><text fill="#000000" font-family="sans-serif" font-size="13" lengthAdjust="spacing" textLength="182.8188" x="548.3711" y="944.5122">cambiaStato(CONFERMATA)</text></g><g class="message" data-participant-1="Main" data-participant-2="Pagina"><polygon fill="#181818" points="265.8193,981.7109,255.8193,985.7109,265.8193,989.7109,261.8193,985.7109" style="stroke:#181818;stroke-width:1;"/><line style="stroke:#181818;stroke-width:1;" x1="259.8193" x2="540.3711" y1="985.7109" y2="985.7109"/><text fill="#000000" font-family="sans-serif" font-size="13" lengthAdjust="spacing" textLength="181.0986" x="271.8193" y="980.645">mostraConfermaIscrizione()</text></g><g class="message" data-participant-1="Pagina" data-participant-2="Concorrente"><polygon fill="#181818" points="101.2886,1010.8438,91.2886,1014.8438,101.2886,1018.8438,97.2886,1014.8438" style="stroke:#181818;stroke-width:1;"/><line style="stroke:#181818;stroke-width:1;" x1="95.2886" x2="253.8193" y1="1014.8438" y2="1014.8438"/><text fill="#000000" font-family="sans-serif" font-size="13" lengthAdjust="spacing" textLength="122.167" x="107.2886" y="1009.7778">notificaConferma()</text></g><line style="stroke:#000000;stroke-width:1;stroke-dasharray:2,2;" x1="20" x2="1228.2695" y1="1023.8438" y2="1023.8438"/><text fill="#000000" font-family="sans-serif" font-size="11" font-weight="bold" lengthAdjust="spacing" textLength="101.9219" x="25" y="1034.0542">[pagamento KO]</text><path d="M30,1044.6484 L116.9517,1044.6484 L116.9517,1051.7813 L106.9517,1061.7813 L30,1061.7813 L30,1044.6484" fill="#EEEEEE" style="stroke:#000000;stroke-width:1.5;"/><rect fill="none" height="75.3984" style="stroke:#000000;stroke-width:1.5;" width="588.3701" x="30" y="1044.6484"/><text fill="#000000" font-family="sans-serif" font-size="13" font-weight="bold" lengthAdjust="spacing" textLength="41.9517" x="45" y="1057.7153">break</text><text fill="#000000" font-family="sans-serif" font-size="11" font-weight="bold" lengthAdjust="spacing" textLength="157.7759" x="131.9517" y="1056.8589">[pagamento non riuscito]</text><g class="message" data-participant-1="Main" data-participant-2="Pagina"><polygon fill="#181818" points="265.8193,1078.9141,255.8193,1082.9141,265.8193,1086.9141,261.8193,1082.9141" style="stroke:#181818;stroke-width:1;"/><line style="stroke:#181818;stroke-width:1;" x1="259.8193" x2="540.3711" y1="1082.9141" y2="1082.9141"/><text fill="#000000" font-family="sans-serif" font-size="13" lengthAdjust="spacing" textLength="262.5518" x="271.8193" y="1077.8481">mostraErrore("Pagamento non riuscito")</text></g><g class="message" data-participant-1="Pagina" data-participant-2="Concorrente"><polygon fill="#181818" points="101.2886,1108.0469,91.2886,1112.0469,101.2886,1116.0469,97.2886,1112.0469" style="stroke:#181818;stroke-width:1;"/><line style="stroke:#181818;stroke-width:1;" x1="95.2886" x2="253.8193" y1="1112.0469" y2="1112.0469"/><text fill="#000000" font-family="sans-serif" font-size="13" lengthAdjust="spacing" textLength="98.5474" x="107.2886" y="1106.981">notificaErrore()</text></g><line style="stroke:#000000;stroke-width:1;stroke-dasharray:2,2;" x1="10" x2="1238.2695" y1="1135.0469" y2="1135.0469"/><text fill="#000000" font-family="sans-serif" font-size="11" font-weight="bold" lengthAdjust="spacing" textLength="106.3423" x="15" y="1145.2573">[data non valida]</text><g class="message" data-participant-1="Main" data-participant-2="Pagina"><polygon fill="#181818" points="265.8193,1165.9844,255.8193,1169.9844,265.8193,1173.9844,261.8193,1169.9844" style="stroke:#181818;stroke-width:1;"/><line style="stroke:#181818;stroke-width:1;" x1="259.8193" x2="540.3711" y1="1169.9844" y2="1169.9844"/><text fill="#000000" font-family="sans-serif" font-size="13" lengthAdjust="spacing" textLength="242.3154" x="271.8193" y="1164.9185">mostraErrore("Gara non disponibile")</text></g><g class="message" data-participant-1="Pagina" data-participant-2="Concorrente"><polygon fill="#181818" points="101.2886,1195.1172,91.2886,1199.1172,101.2886,1203.1172,97.2886,1199.1172" style="stroke:#181818;stroke-width:1;"/><line style="stroke:#181818;stroke-width:1;" x1="95.2886" x2="253.8193" y1="1199.1172" y2="1199.1172"/><text fill="#000000" font-family="sans-serif" font-size="13" lengthAdjust="spacing" textLength="98.5474" x="107.2886" y="1194.0513">notificaErrore()</text></g><line style="stroke:#000000;stroke-width:1;stroke-dasharray:2,2;" x1="10" x2="1238.2695" y1="1208.1172" y2="1208.1172"/><text fill="#000000" font-family="sans-serif" font-size="11" font-weight="bold" lengthAdjust="spacing" textLength="176.7358" x="15" y="1218.3276">[data valida e posti esauriti]</text><g class="message" data-participant-1="Main" data-participant-2="Pagina"><polygon fill="#181818" points="265.8193,1239.0547,255.8193,1243.0547,265.8193,1247.0547,261.8193,1243.0547" style="stroke:#181818;stroke-width:1;"/><line style="stroke:#181818;stroke-width:1;" x1="259.8193" x2="540.3711" y1="1243.0547" y2="1243.0547"/><text fill="#000000" font-family="sans-serif" font-size="13" lengthAdjust="spacing" textLength="192.1499" x="271.8193" y="1237.9888">mostraErrore("Posti esauriti")</text></g><g class="message" data-participant-1="Pagina" data-participant-2="Concorrente"><polygon fill="#181818" points="101.2886,1268.1875,91.2886,1272.1875,101.2886,1276.1875,97.2886,1272.1875" style="stroke:#181818;stroke-width:1;"/><line style="stroke:#181818;stroke-width:1;" x1="95.2886" x2="253.8193" y1="1272.1875" y2="1272.1875"/><text fill="#000000" font-family="sans-serif" font-size="13" lengthAdjust="spacing" textLength="98.5474" x="107.2886" y="1267.1216">notificaErrore()</text></g><!--SRC=[hLNRRjim37ttLn1vQOCY0NPzwCE0e9TXAB9sRR5trM4oOhRbIN8mx8ls7_knaR9ioqxQTN4314YaG-hmy8Xov3A4JpOrz8jqWR1HHYL9gOoZb4fLE3ZJHQgDmS9XRtroepPKg2xs8uTEG5ceD_hWfQ8YokHnijP3IORXsSuevtHlzQxKXTMcVu15inKUItIew_JoQm0Ywp1NJ53bJ8CQkaboD7kXJt84h-QmAD6uoYWelHP0dS8dO2X5aohH6c5TCKvMIuDRiWmXo3tpbwEKHCh3x4De49o2AWqDstWyJS8-8wL5Z6F6tmXNn0t2Iq-OKNwlm_YQzWAahGpOe9FjE5BgR4BzdsYp9PbhooQGq8i6SxWst9xNSxZ333k_0uO2hLEmegXP8yvvL7CRpfQAr5DYzreogk8tS_YAXjR4fhC8cQhB_lExBdLB3vIDgbLb3bQArTkgZ5OYQCbD8nRJybsLz9G0VmQEs0PIvnpADGh2xymwCIJhzTLJmKlryv5Op-6yep1MnhTid1GpBlDObxw56KvXXLccmTOp2MQWIpT6IWu7z7EgpTcfY3qXskbONwxcBotukwKWIWUAb64BiZdRW01zvEQ5STiNCgIE7HvmiSN3Ki0tW6Xcw6AD9ezmMAp6DUdT79hnha4N6V4bFnP_di23GVLzEgOvknFjIwLTVtWENVX34Bmk7CgMMV3qGLpgI7W_XrlSaBIedcNHt3eyzz09ufRr6fshscTJXtxARcmgIquFCGF5J23SKsmFZeqHPDsrvy7t_vBanieK4BHSDACs6wga7qMLez6GAsifr-qhmATxy3wAAdyWTUSKrtfs_VdoudQvk5_KJBoBdxXIPy7tEp9qZq5ykKwXqCuNsmHA4PZnBEySTNNjCtYJHyk5BlX5gMpApTafPK3hmXZD3_JaPc_qPDh6_ujcIDI9uGNnXFqp8Mdhfo9v1Xqlk8H4Wt3oFBrQ8j7XWpSAhQguqVGS9ZUzYF_bm2By1G00]--></g></svg>